<svg xmlns="http://www.w3.org/2000/svg" width="14" height="17.77" viewBox="0 0 14 17.77">
  <g id="Group_20732" data-name="Group 20732" transform="translate(13196 -2608)">
    <path id="Path_16669" data-name="Path 16669" d="M412.531,46.782a.808.808,0,0,0-.571-.236h-.808V61.085h.808a.808.808,0,0,0,.808-.808V47.354A.808.808,0,0,0,412.531,46.782Z" transform="translate(-13594.768 2563.07)" fill="#333"/>
    <path id="Path_16670" data-name="Path 16670" d="M64.784.189a.807.807,0,0,0-.66-.177L54.97,1.628a.808.808,0,0,0-.667.8V15.346a.808.808,0,0,0,.667.8l9.154,1.615a.808.808,0,0,0,.948-.8V.807A.808.808,0,0,0,64.784.189ZM61.605,9.994a.808.808,0,1,1,.236-.571A.813.813,0,0,1,61.605,9.994Z" transform="translate(-13250.303 2608)" fill="#333"/>
  </g>
</svg>
