<svg xmlns="http://www.w3.org/2000/svg" width="22" height="20.952" viewBox="0 0 22 20.952">
  <g id="edit" transform="translate(1 -0.004)">
    <g id="Group_20474" data-name="Group 20474" transform="translate(-1 1.5)">
      <g id="Group_20473" data-name="Group 20473">
        <path id="Path_16649" data-name="Path 16649" d="M18.539,43.116a.779.779,0,0,0-.806.748v7.483a.779.779,0,0,1-.806.748H2.418a.779.779,0,0,1-.806-.748V36.382a.779.779,0,0,1,.806-.748h9.673a.75.75,0,1,0,0-1.5H2.418A2.336,2.336,0,0,0,0,36.382V51.348a2.336,2.336,0,0,0,2.418,2.245H16.927a2.336,2.336,0,0,0,2.418-2.245V43.865A.779.779,0,0,0,18.539,43.116Z" transform="translate(0 -34.137)" fill="#282a2d"/>
      </g>
    </g>
    <g id="Group_20476" data-name="Group 20476" transform="translate(4.538 0.004)">
      <g id="Group_20475" data-name="Group 20475" transform="translate(0 0)">
        <path id="Path_16650" data-name="Path 16650" d="M118.032.843a2.864,2.864,0,0,0-4.052,0L104.124,10.7a.756.756,0,0,0-.18.293l-1.5,4.49a.748.748,0,0,0,.709.985.76.76,0,0,0,.236-.038l4.49-1.5a.749.749,0,0,0,.293-.181l9.856-9.856A2.865,2.865,0,0,0,118.032.843Z" transform="translate(-102.409 -0.004)" fill="#282a2d"/>
      </g>
    </g>
  </g>
</svg>
