<svg id="_34356" data-name="34356" xmlns="http://www.w3.org/2000/svg" width="24.701" height="22.231" viewBox="0 0 24.701 22.231">
  <path id="App_Store" d="M0,35.127V31.775a.561.561,0,0,1,.561-.558H6.484L3.905,35.686H.561A.561.561,0,0,1,0,35.127ZM4.219,41.99l-1.89,1.281c-.254.173-.434.063-.4-.242l.252-2.191a.343.343,0,0,1,.55-.277L4.2,41.4A.323.323,0,0,1,4.219,41.99Zm.454-1.235L3.21,39.919A.556.556,0,0,1,3,39.158L9.778,27.415a.564.564,0,0,1,.767-.206l1.463.834a.56.56,0,0,1,.206.763L5.441,40.55A.566.566,0,0,1,4.673,40.755Zm5.155-5.07,2.579-4.469h1.485l2.094,4.469Zm8.4,1.334c-.586-.292-3.5-6.992-4.249-8.74s-3.007-6.4-2.276-6.763c.52-.26,2.386,3.4,3.785,5.6s4.318,7.872,4.677,8.517-.344,1.187-.734,1.349A1.129,1.129,0,0,1,18.227,37.019ZM20.144,40.1l-.881-1.386a.548.548,0,0,1,.208-.8l.84-.43a.62.62,0,0,1,.824.273l.7,1.331a.657.657,0,0,1-.235.858l-.6.358A.633.633,0,0,1,20.144,40.1Zm3.243,3.635c-.184-.587-1.59-.626-2.219-1.51a1.009,1.009,0,0,1,.11-1.545C23.83,39.248,23.387,43.734,23.387,43.734ZM24.7,35.127a.561.561,0,0,1-.561.559H21.175A1.681,1.681,0,0,0,21,35.179c-.077-.138-.272-.508-.544-1.025-.392-.746-.956-1.813-1.559-2.937h5.243a.561.561,0,0,1,.561.558v3.352h0Z" transform="translate(0 -21.503)"/>
</svg>
