<svg id="surface1" xmlns="http://www.w3.org/2000/svg" width="22" height="22" viewBox="0 0 22 22">
  <path id="Path_15141" data-name="Path 15141" d="M3.347,401.664H2.394A2.4,2.4,0,0,0,0,404.059V405.8a.651.651,0,0,0,.651.651H3.459a1.941,1.941,0,0,1-.112-.651Zm0,0" transform="translate(0 -384.453)" fill="#282a2d"/>
  <path id="Path_15142" data-name="Path 15142" d="M110.456,321.332H109.5a2.4,2.4,0,0,0-2.394,2.395v5.23a.651.651,0,0,0,.651.651h2.808a1.945,1.945,0,0,1-.112-.651Zm0,0" transform="translate(-102.516 -307.608)" fill="#282a2d"/>
  <path id="Path_15143" data-name="Path 15143" d="M278.249,6.474,273.6.261a.655.655,0,0,0-1.046,0L267.9,6.474a.639.639,0,0,0-.058.674.652.652,0,0,0,.582.355H270.1V21.355a.648.648,0,0,0,.651.645H275.4a.648.648,0,0,0,.651-.645V7.5h1.674a.652.652,0,0,0,.581-.355A.639.639,0,0,0,278.249,6.474Zm0,0" transform="translate(-256.377)" fill="#282a2d"/>
  <path id="Path_15144" data-name="Path 15144" d="M217.566,241h-.952a2.4,2.4,0,0,0-2.395,2.394v8.717a.651.651,0,0,0,.651.651h2.808a1.945,1.945,0,0,1-.112-.651Zm0,0" transform="translate(-205.031 -230.762)" fill="#282a2d"/>
</svg>
