<svg id="messages" xmlns="http://www.w3.org/2000/svg" width="16" height="16" viewBox="0 0 16 16">
  <path id="Path_15126" data-name="Path 15126" d="M13,6.5a6.5,6.5,0,1,0-13,0A6.421,6.421,0,0,0,.986,9.94l-.95,2.374a.5.5,0,0,0,.65.649l2.373-.95A6.419,6.419,0,0,0,6.5,13,6.508,6.508,0,0,0,13,6.5Z" fill="#d1d8de"/>
  <path id="Path_15127" data-name="Path 15127" d="M15.1,13.158a5.984,5.984,0,0,0-1.18-7.69,7.463,7.463,0,0,1-8.448,8.456A5.984,5.984,0,0,0,13.158,15.1l2.156.863A.49.49,0,0,0,15.5,16a.5.5,0,0,0,.464-.686Z" fill="#d1d8de"/>
</svg>
