<svg id="Group_20487" data-name="Group 20487" xmlns="http://www.w3.org/2000/svg" width="18" height="17.79" viewBox="0 0 18 17.79">
  <path id="Path_16667" data-name="Path 16667" d="M16.9,12.679a2.055,2.055,0,0,0-.679-3.852,1,1,0,0,1-.79-1.367,2.055,2.055,0,0,0-3-2.514,1,1,0,0,1-1.484-.54,2.055,2.055,0,0,0-3.911,0,1,1,0,0,1-1.484.54,2.055,2.055,0,0,0-3,2.514,1,1,0,0,1-.79,1.367A2.055,2.055,0,0,0,1.1,12.679a1,1,0,0,1,.274,1.555,2.055,2.055,0,0,0,1.956,3.387,1,1,0,0,1,1.21,1.015,2.024,2.024,0,0,0,1.351,2.007,2.1,2.1,0,0,0,.72.129,2.023,2.023,0,0,0,1.6-.8,1,1,0,0,1,1.579,0,2.055,2.055,0,0,0,3.675-1.338,1,1,0,0,1,1.21-1.015,2.055,2.055,0,0,0,1.956-3.387,1,1,0,0,1,.274-1.555ZM9,17.252a5.375,5.375,0,1,1,5.375-5.375A5.381,5.381,0,0,1,9,17.252Z" transform="translate(0 -2.982)" fill="#333"/>
</svg>
