<svg xmlns="http://www.w3.org/2000/svg" width="22.201" height="24.607" viewBox="0 0 22.201 24.607">
  <path id="_104089" data-name="104089" d="M31.834,9.955,15.042.357A2.705,2.705,0,0,0,11,2.7V21.9a2.7,2.7,0,0,0,4.047,2.348l16.792-9.6a2.705,2.705,0,0,0,0-4.7Zm-7.276-2.27L22.252,10.9,16.737,3.215ZM13.594,22.957a1.055,1.055,0,0,1-.428-.135,1.068,1.068,0,0,1-.53-.921V2.7a1.06,1.06,0,0,1,.957-1.057L21.242,12.3Zm3.143-1.565,5.515-7.682,2.306,3.211ZM31.02,13.227,25.989,16.1l-2.728-3.8,2.728-3.8,5.03,2.875a1.064,1.064,0,0,1,0,1.848Z" transform="translate(-10.995)"/>
</svg>
