<svg xmlns="http://www.w3.org/2000/svg" width="18" height="20.48" viewBox="0 0 18 20.48">
  <path id="Path_16665" data-name="Path 16665" d="M48.4,0H31.6a.6.6,0,1,0,0,1.2H33V19.88a.6.6,0,0,0,.782.572L40,18.47l6.218,1.982A.6.6,0,0,0,47,19.88V1.2h1.4a.6.6,0,0,0,0-1.2ZM40.271,12.718a.6.6,0,0,1-.543,0c-1.7-.863-3.529-2.291-3.529-4.192A2.3,2.3,0,0,1,38.4,6.1a2.532,2.532,0,0,1,1.6.566A2.532,2.532,0,0,1,41.6,6.1a2.3,2.3,0,0,1,2.2,2.429C43.8,10.427,41.974,11.855,40.271,12.718Z" transform="translate(-31)" fill="#333"/>
</svg>
