<svg xmlns="http://www.w3.org/2000/svg" width="24.884" height="24.883" viewBox="0 0 24.884 24.883">
  <path id="linkedin" d="M6.53,3.765A2.61,2.61,0,0,1,3.765,6.53,2.659,2.659,0,0,1,1,3.9,2.8,2.8,0,0,1,3.765,1,2.688,2.688,0,0,1,6.53,3.765ZM1,25.883H6.53V7.912H1ZM19.8,8.189a6.054,6.054,0,0,0-5.253,2.765h-.138L14.133,8.6H9.156c0,1.521.138,3.318.138,5.391V25.883h5.53V16.068a4.262,4.262,0,0,1,.138-1.382c.415-.968,1.106-2.212,2.627-2.212,1.935,0,2.765,1.659,2.765,3.871v9.539h5.53V15.654C25.884,10.539,23.257,8.189,19.8,8.189Z" transform="translate(-1 -1)"/>
</svg>
