<svg xmlns="http://www.w3.org/2000/svg" width="151.169" height="36.018" viewBox="0 0 151.169 36.018">
  <g id="Group_20506" data-name="Group 20506" transform="translate(-34.44 -89.28)">
    <g id="Group_20504" data-name="Group 20504">
      <path id="heart" d="M9.855.932A2.878,2.878,0,0,0,7.714,0,2.693,2.693,0,0,0,6.032.581a3.441,3.441,0,0,0-.68.71,3.439,3.439,0,0,0-.68-.71A2.693,2.693,0,0,0,2.99,0,2.879,2.879,0,0,0,.849.932,3.346,3.346,0,0,0,0,3.217,3.984,3.984,0,0,0,1.062,5.825,22.638,22.638,0,0,0,3.719,8.32c.368.314.786.67,1.219,1.049a.628.628,0,0,0,.827,0c.433-.379.851-.735,1.219-1.049A22.628,22.628,0,0,0,9.643,5.825,3.984,3.984,0,0,0,10.7,3.217,3.346,3.346,0,0,0,9.855.932Zm0,0" transform="translate(87.041 89.28)" fill="#e1393f"/>
      <circle id="Ellipse_2606" data-name="Ellipse 2606" cx="3.5" cy="3.5" r="3.5" transform="translate(141 117)" fill="#e1393f"/>
      <path id="Path_16676" data-name="Path 16676" d="M2.635-31.474a10.951,10.951,0,0,1,2.383-7.149q3.639-4.528,10.572-4.528a12.423,12.423,0,0,1,5.091,1.018q3.011,1.321,3.033,3.683a3.021,3.021,0,0,1-.953,2.22,3.148,3.148,0,0,1-2.3.942,9.713,9.713,0,0,1-2.4-.628,6.644,6.644,0,0,0-2.426-.585,4.8,4.8,0,0,0-3.553,1.343,5.211,5.211,0,0,0-1.365,3.683,5.394,5.394,0,0,0,1.278,3.769,4.5,4.5,0,0,0,3.639,1.451,8.985,8.985,0,0,0,2.578-.433q.26-.087.769-.314a5.606,5.606,0,0,1,.845-.314,3.293,3.293,0,0,1,.812-.087,3,3,0,0,1,2.242.953,3.186,3.186,0,0,1,.921,2.3q0,2.535-4.008,3.813a15.2,15.2,0,0,1-4.419.628q-6.434,0-9.857-3.748A11.3,11.3,0,0,1,2.635-31.474Zm24.913,7.929V-49.975a3.633,3.633,0,0,1,1.181-2.73,3.874,3.874,0,0,1,2.762-1.126A3.857,3.857,0,0,1,34.317-52.7a3.7,3.7,0,0,1,1.137,2.73v8.9a8.632,8.632,0,0,1,2.426-1.408,9.764,9.764,0,0,1,3.639-.672,9.274,9.274,0,0,1,6.607,2.275,9.015,9.015,0,0,1,2.535,6.867v10.463a3.668,3.668,0,0,1-1.148,2.7,3.822,3.822,0,0,1-2.795,1.137,3.822,3.822,0,0,1-2.795-1.137,3.668,3.668,0,0,1-1.148-2.7v-8.774a5.85,5.85,0,0,0-.758-3.466,2.838,2.838,0,0,0-2.275-.932,3.6,3.6,0,0,0-3.358,1.82,7.446,7.446,0,0,0-.932,3.943v7.409a3.62,3.62,0,0,1-1.181,2.7A3.867,3.867,0,0,1,31.5-19.711a3.867,3.867,0,0,1-2.773-1.137A3.62,3.62,0,0,1,27.547-23.546Zm28.66,0V-39.338a3.617,3.617,0,0,1,1.159-2.686,3.891,3.891,0,0,1,2.816-1.126,3.8,3.8,0,0,1,2.795,1.137,3.661,3.661,0,0,1,1.137,2.675v15.792a3.62,3.62,0,0,1-1.181,2.7,3.88,3.88,0,0,1-2.784,1.137,3.822,3.822,0,0,1-2.795-1.137A3.668,3.668,0,0,1,56.208-23.546Zm13.821,0V-49.975a3.633,3.633,0,0,1,1.181-2.73,3.874,3.874,0,0,1,2.762-1.126A3.857,3.857,0,0,1,76.8-52.7a3.7,3.7,0,0,1,1.137,2.73v26.429a3.62,3.62,0,0,1-1.181,2.7,3.867,3.867,0,0,1-2.773,1.137,3.867,3.867,0,0,1-2.773-1.137A3.62,3.62,0,0,1,70.029-23.546Zm12.5-7.755a12,12,0,0,1,2.621-7.994q3.184-3.9,9.662-3.9a15.482,15.482,0,0,1,2.535.173v-7a3.717,3.717,0,0,1,1.126-2.73,3.8,3.8,0,0,1,2.795-1.126,3.867,3.867,0,0,1,2.816,1.126,3.682,3.682,0,0,1,1.148,2.73v25.541a3.961,3.961,0,0,1-1.278,3.152,4.669,4.669,0,0,1-3.184,1.116h-4.9q-6.087,0-9.575-2.751A10.008,10.008,0,0,1,82.528-31.3Zm8.124-.13a4.264,4.264,0,0,0,1.625,3.683,8.1,8.1,0,0,0,4.484.975h.585v-9.532q-.715-.087-2.08-.108a4.327,4.327,0,0,0-3.6,1.646A5.363,5.363,0,0,0,90.652-31.431Z" transform="translate(31.805 144.916)" fill="#333"/>
    </g>
    <path id="Path_16677" data-name="Path 16677" d="M13.027-38.015a8.432,8.432,0,0,1,1.842-5.616q2.237-2.74,6.788-2.74a10.877,10.877,0,0,1,1.781.122v-4.916a2.612,2.612,0,0,1,.791-1.918,2.666,2.666,0,0,1,1.963-.791,2.717,2.717,0,0,1,1.979.791,2.587,2.587,0,0,1,.807,1.918V-33.22a2.783,2.783,0,0,1-.9,2.215,3.28,3.28,0,0,1-2.237.784H22.4a10.591,10.591,0,0,1-6.727-1.933A7.031,7.031,0,0,1,13.027-38.015Zm5.708-.091a3,3,0,0,0,1.142,2.587,5.691,5.691,0,0,0,3.151.685h.411v-6.7q-.5-.061-1.461-.076A3.04,3.04,0,0,0,19.45-40.45,3.768,3.768,0,0,0,18.734-38.106Zm13.485-.213a8.087,8.087,0,0,1,2.39-5.905,8.03,8.03,0,0,1,5.8-2.116,7.714,7.714,0,0,1,5.708,2.055,6.59,6.59,0,0,1,1.994,4.84,2.828,2.828,0,0,1-.7,2.039,2.611,2.611,0,0,1-1.979.731H38.049a3.186,3.186,0,0,0,.928,1.72,3.306,3.306,0,0,0,2.344.807,6.181,6.181,0,0,0,2.024-.32q.274-.122.7-.289t.738-.266a2.031,2.031,0,0,1,.616-.1,1.937,1.937,0,0,1,1.461.624,2.184,2.184,0,0,1,.594,1.568q0,1.613-2.268,2.435a12.545,12.545,0,0,1-4.246.624,8.624,8.624,0,0,1-6.255-2.192A8.076,8.076,0,0,1,32.219-38.319Zm5.829-1.689h4.673a2.436,2.436,0,0,0-.563-1.4,2.1,2.1,0,0,0-1.72-.685,2.253,2.253,0,0,0-1.735.624A3.237,3.237,0,0,0,38.049-40.009Z" transform="translate(137 154.669)" fill="#e1393f" stroke="rgba(0,0,0,0)" stroke-width="1"/>
  </g>
</svg>
