<svg xmlns="http://www.w3.org/2000/svg" width="22" height="23.999" viewBox="0 0 22 23.999">
  <g id="notification" transform="translate(0.002)">
    <path id="Path_16646" data-name="Path 16646" d="M138.639,451a3.756,3.756,0,0,0,3.674-3h-7.348A3.756,3.756,0,0,0,138.639,451Zm0,0" transform="translate(-128.64 -427.001)" fill="#fff"/>
    <path id="Path_16647" data-name="Path 16647" d="M17.011,52.667H17a7.008,7.008,0,0,1-7-7,6.937,6.937,0,0,1,.669-2.966c-.22-.021-.443-.034-.669-.034a7,7,0,0,0-7,7v2.788A6.7,6.7,0,0,1,.611,57.588a1.75,1.75,0,0,0-.55,1.8,1.834,1.834,0,0,0,1.8,1.283H18.134a1.833,1.833,0,0,0,1.828-1.387,1.753,1.753,0,0,0-.6-1.712A6.654,6.654,0,0,1,17.011,52.667Zm0,0" transform="translate(0 -40.668)" fill="#fff"/>
    <path id="Path_16648" data-name="Path 16648" d="M266.011,5a5,5,0,1,1-5-5A5,5,0,0,1,266.011,5Zm0,0" transform="translate(-244.013)" fill="#e45b60"/>
  </g>
</svg>
