<svg xmlns="http://www.w3.org/2000/svg" width="19.503" height="25.071" viewBox="0 0 19.503 25.071">
  <path id="pinterest" d="M10.239,16.581c-.659,3.452-1.463,6.762-3.846,8.49-.735-5.217,1.079-9.135,1.923-13.294-1.438-2.419.173-7.286,3.2-6.086,3.729,1.474-3.229,8.99,1.442,9.931C17.838,16.6,19.828,7.16,16.8,4.09c-4.369-4.435-12.718-.1-11.69,6.245.249,1.552,1.853,2.022.641,4.164-2.8-.619-3.631-2.825-3.524-5.766C2.4,3.92,6.553.552,10.718.084c5.266-.59,10.209,1.934,10.892,6.887.768,5.592-2.377,11.649-8.009,11.213C12.074,18.065,11.435,17.308,10.239,16.581Z" transform="translate(-2.221 0)"/>
</svg>
