<svg xmlns="http://www.w3.org/2000/svg" width="22" height="22.073" viewBox="0 0 22 22.073">
  <g id="trophy" transform="translate(-0.847)">
    <g id="Group_20430" data-name="Group 20430" transform="translate(7.327 15.337)">
      <g id="Group_20429" data-name="Group 20429">
        <path id="Path_16631" data-name="Path 16631" d="M158.518,358.994l-.008-.007a1.842,1.842,0,0,1-.89-1.63v-1.615a6.482,6.482,0,0,1-1.94.27,6.775,6.775,0,0,1-1.94-.266v1.611a1.842,1.842,0,0,1-.89,1.63l0,0a2.86,2.86,0,0,0-.735.555,3.163,3.163,0,0,0-.959,2.287.646.646,0,0,0,.647.647h7.76a.646.646,0,0,0,.647-.647A3.248,3.248,0,0,0,158.518,358.994Z" transform="translate(-151.154 -355.743)" fill="#282a2d"/>
      </g>
    </g>
    <g id="Group_20432" data-name="Group 20432" transform="translate(0.847)">
      <g id="Group_20431" data-name="Group 20431" transform="translate(0)">
        <path id="Path_16632" data-name="Path 16632" d="M19.823,2.587H18.777l.129-1.293h.708a.647.647,0,1,0,0-1.293H4.094a.647.647,0,1,0,0,1.293H4.8L4.93,2.587H3.871A3.027,3.027,0,0,0,.847,5.61a6.421,6.421,0,0,0,4.322,6.082l2.2.733a6.237,6.237,0,0,0,4.487,1.887,6.348,6.348,0,0,0,4.532-1.907l2.14-.713A6.421,6.421,0,0,0,22.847,5.61,3.027,3.027,0,0,0,19.823,2.587ZM5.578,10.466A5.131,5.131,0,0,1,2.14,5.61a1.732,1.732,0,0,1,1.73-1.73H5.059L5.52,8.587a6.414,6.414,0,0,0,.59,2.057ZM15.657,6.244,14.224,7.728,14.562,9.7a.647.647,0,0,1-.938.681l-1.77-.931-1.77.931A.647.647,0,0,1,9.145,9.7l.338-1.972L8.05,6.244a.647.647,0,0,1,.359-1.1l1.98-.288.885-1.794a.673.673,0,0,1,1.159,0l.885,1.794,1.98.288A.647.647,0,0,1,15.657,6.244Zm2.458,4.222-.5.166a6.347,6.347,0,0,0,.57-2.05l.46-4.7h1.175a1.732,1.732,0,0,1,1.73,1.73A5.131,5.131,0,0,1,18.116,10.466Z" transform="translate(-0.847)" fill="#282a2d"/>
      </g>
    </g>
    <g id="Group_20434" data-name="Group 20434" transform="translate(9.892 4.808)">
      <g id="Group_20433" data-name="Group 20433">
        <path id="Path_16633" data-name="Path 16633" d="M214.567,112.944l-1.019-.148a.645.645,0,0,1-.487-.354l-.456-.923-.456.923a.645.645,0,0,1-.487.354l-1.019.148.738.762a.733.733,0,0,1,.186.615l-.174,1.015.911-.479a.645.645,0,0,1,.6,0l.911.479-.174-1.015a.733.733,0,0,1,.186-.615Z" transform="translate(-210.643 -111.519)" fill="#282a2d"/>
      </g>
    </g>
  </g>
</svg>
