<svg xmlns="http://www.w3.org/2000/svg" width="27.354" height="22.236" viewBox="0 0 27.354 22.236">
  <path id="twitter-with-circle" d="M30.188,11.937c.012.243.015.487.015.724,0,7.421-5.643,15.973-15.967,15.973a15.838,15.838,0,0,1-8.6-2.523,11.038,11.038,0,0,0,1.339.074,11.241,11.241,0,0,0,6.97-2.4A5.624,5.624,0,0,1,8.7,19.889a5.846,5.846,0,0,0,1.054.1,5.639,5.639,0,0,0,1.478-.2,5.618,5.618,0,0,1-4.5-5.5V14.22a5.628,5.628,0,0,0,2.544.7,5.625,5.625,0,0,1-1.737-7.5A15.958,15.958,0,0,0,19.1,13.294a5.533,5.533,0,0,1-.145-1.282,5.614,5.614,0,0,1,9.71-3.838A11.272,11.272,0,0,0,32.23,6.811a5.639,5.639,0,0,1-2.467,3.108,11.275,11.275,0,0,0,3.224-.888A11.38,11.38,0,0,1,30.188,11.937Z" transform="translate(-5.633 -6.398)"/>
</svg>
